<svg xmlns:dc="http://purl.org/dc/elements/1.1/" xmlns:cc="http://creativecommons.org/ns#" xmlns:rdf="http://www.w3.org/1999/02/22-rdf-syntax-ns#" xmlns:svg="http://www.w3.org/2000/svg" xmlns="http://www.w3.org/2000/svg" xmlns:sodipodi="http://sodipodi.sourceforge.net/DTD/sodipodi-0.dtd" xmlns:inkscape="http://www.inkscape.org/namespaces/inkscape" version="1.1" x="0px" y="0px" viewBox="0 0 512 640" enable-background="new 0 0 512 512" xml:space="preserve"><path d="M 467.46444,403.21249 C 421.62844,465.19537 341.82959,504.13734 256.1862,503.40829 170.54281,504.13734 90.742993,465.1944 44.907962,403.21249 l -38.0426282,37.98546 0,-124.42166 124.6599462,0 -34.269626,34.1876 c 27.483286,45.41399 73.470256,78.05309 127.764826,87.30328 l 0,-188.10761 c -53.68587,-13.86653 -93.4952,-62.10438 -93.4952,-120.01722 0,-68.710566 55.8178,-124.4216702 124.66092,-124.4216702 68.84215,0 124.66092,55.7111042 124.66092,124.4226402 0,57.91284 -39.80933,106.15069 -93.4952,120.01723 l 0,188.10663 c 54.29458,-9.25019 100.28251,-41.88929 127.76386,-87.30328 l -34.26866,-34.1876 124.65898,0 0,124.42166 -38.04166,-37.98546 z M 318.51569,130.14331 c 0,-34.355768 -27.90695,-62.211324 -62.32949,-62.211324 -34.42253,0 -62.33046,27.855556 -62.33046,62.211324 0,34.35577 27.90793,62.21132 62.33046,62.21132 34.42254,-9.7e-4 62.32949,-27.85653 62.32949,-62.21132 z" style="" clip-rule="evenodd" fill-rule="evenodd"/><text x="0" y="527" fill="#000000" font-size="5px" font-weight="bold" font-family="'Helvetica Neue', Helvetica, Arial-Unicode, Arial, Sans-serif">Created by Gislene Carvalho</text><text x="0" y="532" fill="#000000" font-size="5px" font-weight="bold" font-family="'Helvetica Neue', Helvetica, Arial-Unicode, Arial, Sans-serif">from the Noun Project</text></svg>