<svg xmlns:dc="http://purl.org/dc/elements/1.1/" xmlns:cc="http://creativecommons.org/ns#" xmlns:rdf="http://www.w3.org/1999/02/22-rdf-syntax-ns#" xmlns:svg="http://www.w3.org/2000/svg" xmlns="http://www.w3.org/2000/svg" xmlns:sodipodi="http://sodipodi.sourceforge.net/DTD/sodipodi-0.dtd" xmlns:inkscape="http://www.inkscape.org/namespaces/inkscape" viewBox="0 0 32 40.00000125" version="1.1" x="0px" y="0px"><g transform="translate(0,-1020.3622)"><path style="color:#000000;font-style:normal;font-variant:normal;font-weight:normal;font-stretch:normal;font-size:medium;line-height:normal;font-family:sans-serif;text-indent:0;text-align:start;text-decoration:none;text-decoration-line:none;text-decoration-style:solid;text-decoration-color:#000000;letter-spacing:normal;word-spacing:normal;text-transform:none;direction:ltr;block-progression:tb;writing-mode:lr-tb;baseline-shift:baseline;text-anchor:start;white-space:normal;clip-rule:nonzero;display:inline;overflow:visible;visibility:visible;opacity:1;isolation:auto;mix-blend-mode:normal;color-interpolation:sRGB;color-interpolation-filters:linearRGB;solid-color:#000000;solid-opacity:1;fill:#000000;fill-opacity:1;fill-rule:nonzero;stroke:none;stroke-width:1.00000203;stroke-linecap:round;stroke-linejoin:round;stroke-miterlimit:4;stroke-dasharray:none;stroke-dashoffset:0;stroke-opacity:1;color-rendering:auto;image-rendering:auto;shape-rendering:auto;text-rendering:auto;enable-background:accumulate" d="m 14.5,1036.8613 c -0.822505,0 -1.499998,0.6775 -1.5,1.5 2e-6,0.8225 0.677495,1.5 1.5,1.5 0.822505,0 1.499998,-0.6775 1.5,-1.5 -2e-6,-0.8225 -0.677495,-1.5 -1.5,-1.5 z m 0,1 c 0.282065,0 0.499999,0.218 0.5,0.5 -10e-7,0.2821 -0.217935,0.5 -0.5,0.5 -0.282065,0 -0.499999,-0.2179 -0.5,-0.5 10e-7,-0.282 0.217935,-0.5 0.5,-0.5 z"/><path style="color:#000000;font-style:normal;font-variant:normal;font-weight:normal;font-stretch:normal;font-size:medium;line-height:normal;font-family:sans-serif;text-indent:0;text-align:start;text-decoration:none;text-decoration-line:none;text-decoration-style:solid;text-decoration-color:#000000;letter-spacing:normal;word-spacing:normal;text-transform:none;direction:ltr;block-progression:tb;writing-mode:lr-tb;baseline-shift:baseline;text-anchor:start;white-space:normal;clip-rule:nonzero;display:inline;overflow:visible;visibility:visible;opacity:1;isolation:auto;mix-blend-mode:normal;color-interpolation:sRGB;color-interpolation-filters:linearRGB;solid-color:#000000;solid-opacity:1;fill:#000000;fill-opacity:1;fill-rule:nonzero;stroke:none;stroke-width:1.00000203;stroke-linecap:round;stroke-linejoin:round;stroke-miterlimit:4;stroke-dasharray:none;stroke-dashoffset:0;stroke-opacity:1;color-rendering:auto;image-rendering:auto;shape-rendering:auto;text-rendering:auto;enable-background:accumulate" d="m 23.5,1036.8613 c -0.822505,0 -1.499998,0.6775 -1.5,1.5 2e-6,0.8225 0.677495,1.5 1.5,1.5 0.822505,0 1.499998,-0.6775 1.5,-1.5 -2e-6,-0.8225 -0.677495,-1.5 -1.5,-1.5 z m 0,1 c 0.282065,0 0.499999,0.218 0.5,0.5 -1e-6,0.2821 -0.217935,0.5 -0.5,0.5 -0.282065,0 -0.499999,-0.2179 -0.5,-0.5 1e-6,-0.282 0.217935,-0.5 0.5,-0.5 z"/><path style="color:#000000;font-style:normal;font-variant:normal;font-weight:normal;font-stretch:normal;font-size:medium;line-height:normal;font-family:sans-serif;text-indent:0;text-align:start;text-decoration:none;text-decoration-line:none;text-decoration-style:solid;text-decoration-color:#000000;letter-spacing:normal;word-spacing:normal;text-transform:none;direction:ltr;block-progression:tb;writing-mode:lr-tb;baseline-shift:baseline;text-anchor:start;white-space:normal;clip-rule:nonzero;display:inline;overflow:visible;visibility:visible;opacity:1;isolation:auto;mix-blend-mode:normal;color-interpolation:sRGB;color-interpolation-filters:linearRGB;solid-color:#000000;solid-opacity:1;fill:#000000;fill-opacity:1;fill-rule:nonzero;stroke:none;stroke-width:1.00000203;stroke-linecap:round;stroke-linejoin:round;stroke-miterlimit:4;stroke-dasharray:none;stroke-dashoffset:0;stroke-opacity:1;color-rendering:auto;image-rendering:auto;shape-rendering:auto;text-rendering:auto;enable-background:accumulate" d="m 19,1036.8613 c -0.822505,0 -1.499998,0.6775 -1.5,1.5 2e-6,0.8225 0.677495,1.5 1.5,1.5 0.822505,0 1.499998,-0.6775 1.5,-1.5 -2e-6,-0.8225 -0.677495,-1.5 -1.5,-1.5 z m 0,1 c 0.282065,0 0.499999,0.218 0.5,0.5 -1e-6,0.2821 -0.217935,0.5 -0.5,0.5 -0.282065,0 -0.499999,-0.2179 -0.5,-0.5 1e-6,-0.282 0.217935,-0.5 0.5,-0.5 z"/><path style="color:#000000;font-style:normal;font-variant:normal;font-weight:normal;font-stretch:normal;font-size:medium;line-height:normal;font-family:sans-serif;text-indent:0;text-align:start;text-decoration:none;text-decoration-line:none;text-decoration-style:solid;text-decoration-color:#000000;letter-spacing:normal;word-spacing:normal;text-transform:none;direction:ltr;block-progression:tb;writing-mode:lr-tb;baseline-shift:baseline;text-anchor:start;white-space:normal;clip-rule:nonzero;display:inline;overflow:visible;visibility:visible;opacity:1;isolation:auto;mix-blend-mode:normal;color-interpolation:sRGB;color-interpolation-filters:linearRGB;solid-color:#000000;solid-opacity:1;fill:#000000;fill-opacity:1;fill-rule:evenodd;stroke:none;stroke-width:1.00000191;stroke-linecap:butt;stroke-linejoin:miter;stroke-miterlimit:4;stroke-dasharray:none;stroke-dashoffset:0;stroke-opacity:1;color-rendering:auto;image-rendering:auto;shape-rendering:auto;text-rendering:auto;enable-background:accumulate" d="m 14.5,1032.8594 0,1 1.5,0 0,-1 -1.5,0 z"/><path style="color:#000000;font-style:normal;font-variant:normal;font-weight:normal;font-stretch:normal;font-size:medium;line-height:normal;font-family:sans-serif;text-indent:0;text-align:start;text-decoration:none;text-decoration-line:none;text-decoration-style:solid;text-decoration-color:#000000;letter-spacing:normal;word-spacing:normal;text-transform:none;direction:ltr;block-progression:tb;writing-mode:lr-tb;baseline-shift:baseline;text-anchor:start;white-space:normal;clip-rule:nonzero;display:inline;overflow:visible;visibility:visible;opacity:1;isolation:auto;mix-blend-mode:normal;color-interpolation:sRGB;color-interpolation-filters:linearRGB;solid-color:#000000;solid-opacity:1;fill:#000000;fill-opacity:1;fill-rule:evenodd;stroke:none;stroke-width:1.00000203;stroke-linecap:butt;stroke-linejoin:round;stroke-miterlimit:4;stroke-dasharray:none;stroke-dashoffset:0;stroke-opacity:1;color-rendering:auto;image-rendering:auto;shape-rendering:auto;text-rendering:auto;enable-background:accumulate" d="m 10.5,1034.8613 a 0.50005101,0.50005101 0 0 0 -0.5,0.5 l 0,3.4981 1,0 0,-2.9981 16,0.01 0,4.4941 1,0 0,-4.9922 a 0.50005101,0.50005101 0 0 0 -0.5,-0.5 l -17,-0.012 z"/><path style="color:#000000;font-style:normal;font-variant:normal;font-weight:normal;font-stretch:normal;font-size:medium;line-height:normal;font-family:sans-serif;text-indent:0;text-align:start;text-decoration:none;text-decoration-line:none;text-decoration-style:solid;text-decoration-color:#000000;letter-spacing:normal;word-spacing:normal;text-transform:none;direction:ltr;block-progression:tb;writing-mode:lr-tb;baseline-shift:baseline;text-anchor:start;white-space:normal;clip-rule:nonzero;display:inline;overflow:visible;visibility:visible;opacity:1;isolation:auto;mix-blend-mode:normal;color-interpolation:sRGB;color-interpolation-filters:linearRGB;solid-color:#000000;solid-opacity:1;fill:#000000;fill-opacity:1;fill-rule:nonzero;stroke:none;stroke-width:1.00000203;stroke-linecap:butt;stroke-linejoin:round;stroke-miterlimit:4;stroke-dasharray:none;stroke-dashoffset:0;stroke-opacity:1;color-rendering:auto;image-rendering:auto;shape-rendering:auto;text-rendering:auto;enable-background:accumulate" d="m 12.5,1030.8613 a 0.50005101,0.50005101 0 0 0 -0.5,0.5 l 0,4 1,0 0,-3.5 11.5,0 0,3.5 1,0 0,-4 a 0.50005101,0.50005101 0 0 0 -0.5,-0.5 l -12.5,0 z"/><path style="color:#000000;font-style:normal;font-variant:normal;font-weight:normal;font-stretch:normal;font-size:medium;line-height:normal;font-family:sans-serif;text-indent:0;text-align:start;text-decoration:none;text-decoration-line:none;text-decoration-style:solid;text-decoration-color:#000000;letter-spacing:normal;word-spacing:normal;text-transform:none;direction:ltr;block-progression:tb;writing-mode:lr-tb;baseline-shift:baseline;text-anchor:start;white-space:normal;clip-rule:nonzero;display:inline;overflow:visible;visibility:visible;opacity:1;isolation:auto;mix-blend-mode:normal;color-interpolation:sRGB;color-interpolation-filters:linearRGB;solid-color:#000000;solid-opacity:1;fill:#000000;fill-opacity:1;fill-rule:nonzero;stroke:none;stroke-width:1.00000203;stroke-linecap:butt;stroke-linejoin:round;stroke-miterlimit:4;stroke-dasharray:none;stroke-dashoffset:0;stroke-opacity:1;color-rendering:auto;image-rendering:auto;shape-rendering:auto;text-rendering:auto;enable-background:accumulate" d="m 20,1026.8613 a 0.50005101,0.50005101 0 0 0 -0.5,0.5 l 0,4 1,0 0,-3.5 1.5,0 0,3.5 1,0 0,-4 a 0.50005101,0.50005101 0 0 0 -0.5,-0.5 l -2.5,0 z"/><path style="color:#000000;font-style:normal;font-variant:normal;font-weight:normal;font-stretch:normal;font-size:medium;line-height:normal;font-family:sans-serif;text-indent:0;text-align:start;text-decoration:none;text-decoration-line:none;text-decoration-style:solid;text-decoration-color:#000000;letter-spacing:normal;word-spacing:normal;text-transform:none;direction:ltr;block-progression:tb;writing-mode:lr-tb;baseline-shift:baseline;text-anchor:start;white-space:normal;clip-rule:nonzero;display:inline;overflow:visible;visibility:visible;opacity:1;isolation:auto;mix-blend-mode:normal;color-interpolation:sRGB;color-interpolation-filters:linearRGB;solid-color:#000000;solid-opacity:1;fill:#000000;fill-opacity:1;fill-rule:evenodd;stroke:none;stroke-width:1.00000203;stroke-linecap:round;stroke-linejoin:round;stroke-miterlimit:4;stroke-dasharray:none;stroke-dashoffset:0;stroke-opacity:1;color-rendering:auto;image-rendering:auto;shape-rendering:auto;text-rendering:auto;enable-background:accumulate" d="m 7.5,1038.3613 a 0.50005101,0.50005101 0 0 0 -0.4589844,0.6973 l 3.0000004,7.0117 a 0.50005101,0.50005101 0 1 0 0.917968,-0.3945 l -2.7031246,-6.3145 2.9062496,0 0.873047,2.1875 A 0.50005101,0.50005101 0 0 0 12.5,1041.8613 l 13.5,0 a 0.50005101,0.50005101 0 0 0 0.447266,-0.2754 l 0.361328,-0.7246 1.882812,0 -2.638672,5.2871 a 0.50006619,0.50006619 0 0 0 0.894532,0.4473 l 3,-6.0098 A 0.50005101,0.50005101 0 0 0 29.5,1039.8613 l -3,0 a 0.50005101,0.50005101 0 0 0 -0.447266,0.2774 l -0.361328,0.7226 -12.853515,0 -0.873047,-2.1855 A 0.50005101,0.50005101 0 0 0 11.5,1038.3613 l -4,0 z"/><path style="color:#000000;font-style:normal;font-variant:normal;font-weight:normal;font-stretch:normal;font-size:medium;line-height:normal;font-family:sans-serif;text-indent:0;text-align:start;text-decoration:none;text-decoration-line:none;text-decoration-style:solid;text-decoration-color:#000000;letter-spacing:normal;word-spacing:normal;text-transform:none;direction:ltr;block-progression:tb;writing-mode:lr-tb;baseline-shift:baseline;text-anchor:start;white-space:normal;clip-rule:nonzero;display:inline;overflow:visible;visibility:visible;opacity:1;isolation:auto;mix-blend-mode:normal;color-interpolation:sRGB;color-interpolation-filters:linearRGB;solid-color:#000000;solid-opacity:1;fill:#000000;fill-opacity:1;fill-rule:evenodd;stroke:none;stroke-width:1.00000036;stroke-linecap:round;stroke-linejoin:round;stroke-miterlimit:4;stroke-dasharray:none;stroke-dashoffset:0;stroke-opacity:1;color-rendering:auto;image-rendering:auto;shape-rendering:auto;text-rendering:auto;enable-background:accumulate" d="m 29.476562,1045.373 a 0.50005018,0.50005018 0 0 0 -0.265624,0.092 c 0,0 -0.340242,0.2347 -0.78125,0.4688 -0.441009,0.234 -1.003948,0.4393 -1.240235,0.4394 -0.234709,2e-4 -0.504752,-0.1589 -0.865234,-0.4062 -0.360482,-0.2473 -0.811173,-0.582 -1.431641,-0.582 -0.620389,0 -1.071134,0.3347 -1.43164,0.582 -0.360507,0.2473 -0.632348,0.4062 -0.867188,0.4062 -0.23484,0 -0.504728,-0.1589 -0.865234,-0.4062 -0.360507,-0.2473 -0.811252,-0.582 -1.431641,-0.582 -0.62039,0 -1.071133,0.3347 -1.431641,0.582 -0.360508,0.2473 -0.630394,0.4062 -0.865234,0.4062 -0.23484,0 -0.504728,-0.1589 -0.865234,-0.4062 -0.360507,-0.2473 -0.811251,-0.582 -1.431641,-0.582 -0.620389,0 -1.071134,0.3347 -1.431641,0.582 -0.360506,0.2473 -0.630393,0.4062 -0.865234,0.4062 -0.23484,0 -0.506681,-0.1589 -0.867188,-0.4062 -0.360506,-0.2473 -0.809298,-0.582 -1.429687,-0.582 -0.620391,0 -1.071133,0.3347 -1.4316406,0.582 -0.3605076,0.2473 -0.6323472,0.4062 -0.8671875,0.4062 -0.2363129,2e-4 -0.7989516,-0.2048 -1.2402344,-0.4375 -0.4412828,-0.2326 -0.7832031,-0.4648 -0.7832031,-0.4648 a 0.50005018,0.50005018 0 1 0 -0.5625,0.8262 c 0,0 0.381962,0.2614 0.8789062,0.5234 0.4969443,0.2621 1.0857221,0.5531 1.7070313,0.5527 0.6203897,0 1.0711334,-0.3347 1.4316411,-0.582 0.360507,-0.2473 0.632343,-0.4062 0.867187,-0.4062 0.23484,0 0.504728,0.1589 0.865234,0.4062 0.360507,0.2473 0.811252,0.582 1.431641,0.582 0.62039,0 1.071134,-0.3347 1.431641,-0.582 0.360506,-0.2473 0.630394,-0.4062 0.865234,-0.4062 0.23484,0 0.504728,0.1589 0.865234,0.4062 0.360507,0.2473 0.811251,0.582 1.431641,0.582 0.62039,0 1.071133,-0.3347 1.431641,-0.582 0.360507,-0.2473 0.630393,-0.4062 0.865234,-0.4062 0.23484,0 0.506681,0.1589 0.867187,0.4062 0.360507,0.2473 0.809298,0.582 1.429688,0.582 0.620389,0 1.071134,-0.3347 1.431641,-0.582 0.360506,-0.2473 0.632348,-0.4062 0.867187,-0.4062 0.234762,0 0.504701,0.1588 0.865234,0.4062 0.360534,0.2474 0.81112,0.5823 1.431641,0.582 0.622295,-3e-4 1.212224,-0.293 1.708985,-0.5566 0.49676,-0.2636 0.878906,-0.5273 0.878906,-0.5273 a 0.50005018,0.50005018 0 0 0 -0.300782,-0.9161 z"/><path style="color:#000000;font-style:normal;font-variant:normal;font-weight:normal;font-stretch:normal;font-size:medium;line-height:normal;font-family:sans-serif;text-indent:0;text-align:start;text-decoration:none;text-decoration-line:none;text-decoration-style:solid;text-decoration-color:#000000;letter-spacing:normal;word-spacing:normal;text-transform:none;direction:ltr;block-progression:tb;writing-mode:lr-tb;baseline-shift:baseline;text-anchor:start;white-space:normal;clip-rule:nonzero;display:inline;overflow:visible;visibility:visible;opacity:1;isolation:auto;mix-blend-mode:normal;color-interpolation:sRGB;color-interpolation-filters:linearRGB;solid-color:#000000;solid-opacity:1;fill:#000000;fill-opacity:1;fill-rule:evenodd;stroke:none;stroke-width:1.00000036;stroke-linecap:round;stroke-linejoin:round;stroke-miterlimit:4;stroke-dasharray:none;stroke-dashoffset:0;stroke-opacity:1;color-rendering:auto;image-rendering:auto;shape-rendering:auto;text-rendering:auto;enable-background:accumulate" d="m 24.976562,1047.873 a 0.50005018,0.50005018 0 0 0 -0.265624,0.092 c 0,0 -0.340242,0.2347 -0.78125,0.4688 -0.441009,0.234 -1.003948,0.4393 -1.240235,0.4394 -0.234709,2e-4 -0.504752,-0.1589 -0.865234,-0.4062 -0.360482,-0.2473 -0.811173,-0.582 -1.431641,-0.582 -0.620389,0 -1.071134,0.3347 -1.43164,0.582 -0.360507,0.2473 -0.632348,0.4062 -0.867188,0.4062 -0.23484,0 -0.504728,-0.1589 -0.865234,-0.4062 -0.360507,-0.2473 -0.811252,-0.582 -1.431641,-0.582 -0.62039,0 -1.071133,0.3347 -1.431641,0.582 -0.360508,0.2473 -0.630394,0.4062 -0.865234,0.4062 -0.23484,0 -0.504728,-0.1589 -0.865234,-0.4062 -0.360507,-0.2473 -0.811251,-0.582 -1.431641,-0.582 -0.620389,0 -1.071134,0.3347 -1.4316406,0.582 -0.3605065,0.2473 -0.6303934,0.4062 -0.8652344,0.4062 -0.2348396,0 -0.506681,-0.1589 -0.8671875,-0.4062 -0.3605065,-0.2473 -0.8092981,-0.582 -1.4296875,-0.582 -0.6203911,0 -1.071133,0.3347 -1.4316406,0.582 -0.3605076,0.2473 -0.6323472,0.4062 -0.8671875,0.4062 -0.2363129,2e-4 -0.7989516,-0.2048 -1.2402344,-0.4375 -0.4412828,-0.2326 -0.7832031,-0.4648 -0.7832031,-0.4648 a 0.50005018,0.50005018 0 1 0 -0.5625,0.8262 c 0,0 0.381962,0.2614 0.8789062,0.5234 0.4969443,0.2621 1.0857221,0.5531 1.7070313,0.5527 0.6203897,0 1.0711334,-0.3347 1.4316406,-0.582 0.3605072,-0.2473 0.6323436,-0.4062 0.8671875,-0.4062 0.2348396,0 0.5047279,0.1589 0.8652344,0.4062 0.3605065,0.2473 0.8112512,0.582 1.4316406,0.582 0.62039,0 1.0711339,-0.3347 1.431641,-0.582 0.360506,-0.2473 0.630394,-0.4062 0.865234,-0.4062 0.23484,0 0.504728,0.1589 0.865234,0.4062 0.360507,0.2473 0.811251,0.582 1.431641,0.582 0.62039,0 1.071133,-0.3347 1.431641,-0.582 0.360507,-0.2473 0.630393,-0.4062 0.865234,-0.4062 0.23484,0 0.506681,0.1589 0.867187,0.4062 0.360507,0.2473 0.809298,0.582 1.429688,0.582 0.620389,0 1.071134,-0.3347 1.431641,-0.582 0.360506,-0.2473 0.632348,-0.4062 0.867187,-0.4062 0.234762,0 0.504701,0.1588 0.865234,0.4062 0.360534,0.2474 0.81112,0.5823 1.431641,0.582 0.622295,-3e-4 1.212224,-0.293 1.708985,-0.5566 0.49676,-0.2636 0.878906,-0.5273 0.878906,-0.5273 a 0.50005018,0.50005018 0 0 0 -0.300782,-0.9161 z"/><path style="color:#000000;font-style:normal;font-variant:normal;font-weight:normal;font-stretch:normal;font-size:medium;line-height:normal;font-family:sans-serif;text-indent:0;text-align:start;text-decoration:none;text-decoration-line:none;text-decoration-style:solid;text-decoration-color:#000000;letter-spacing:normal;word-spacing:normal;text-transform:none;direction:ltr;block-progression:tb;writing-mode:lr-tb;baseline-shift:baseline;text-anchor:start;white-space:normal;clip-rule:nonzero;display:inline;overflow:visible;visibility:visible;opacity:1;isolation:auto;mix-blend-mode:normal;color-interpolation:sRGB;color-interpolation-filters:linearRGB;solid-color:#000000;solid-opacity:1;fill:#000000;fill-opacity:1;fill-rule:evenodd;stroke:none;stroke-width:1.00000036;stroke-linecap:round;stroke-linejoin:round;stroke-miterlimit:4;stroke-dasharray:none;stroke-dashoffset:0;stroke-opacity:1;color-rendering:auto;image-rendering:auto;shape-rendering:auto;text-rendering:auto;enable-background:accumulate" d="m 29.179688,1050.3633 a 0.50005018,0.50005018 0 0 0 -0.265626,0.092 c 0,0 -0.342201,0.2327 -0.783203,0.4668 -0.441002,0.234 -1.003999,0.4393 -1.240234,0.4394 -0.234676,2e-4 -0.504759,-0.1589 -0.865234,-0.4062 -0.360476,-0.2474 -0.811154,-0.5821 -1.431641,-0.5821 -0.620389,0 -1.071134,0.3348 -1.431641,0.5821 -0.360506,0.2473 -0.630394,0.4062 -0.865234,0.4062 -0.23484,0 -0.504728,-0.1589 -0.865234,-0.4062 -0.360507,-0.2473 -0.811252,-0.5821 -1.431641,-0.5821 -0.62039,0 -1.071133,0.3348 -1.431641,0.5821 -0.360508,0.2473 -0.630394,0.4062 -0.865234,0.4062 -0.23484,0 -0.504728,-0.1589 -0.865234,-0.4062 -0.360507,-0.2473 -0.811251,-0.5821 -1.431641,-0.5821 -0.620389,0 -1.071134,0.3348 -1.431641,0.5821 -0.360506,0.2473 -0.632346,0.4062 -0.867187,0.4062 -0.23484,0 -0.504728,-0.1589 -0.865234,-0.4062 -0.360507,-0.2473 -0.811252,-0.5821 -1.431641,-0.5821 -0.620391,0 -1.0711331,0.3348 -1.4316408,0.5821 -0.3605076,0.2473 -0.630394,0.4062 -0.8652343,0.4062 -0.236313,2e-4 -0.7989516,-0.2028 -1.2402344,-0.4355 -0.4412828,-0.2327 -0.7832031,-0.4649 -0.7832031,-0.4649 a 0.50005018,0.50005018 0 1 0 -0.5644532,0.8243 c 0,0 0.3839152,0.2633 0.8808594,0.5253 0.4969443,0.2621 1.0857221,0.5512 1.7070313,0.5508 0.6203897,0 1.0711334,-0.3347 1.4316406,-0.582 0.3605075,-0.2473 0.6303905,-0.4063 0.8652345,-0.4063 0.234839,0 0.506681,0.159 0.867187,0.4063 0.360507,0.2473 0.809298,0.582 1.429688,0.582 0.62039,0 1.071134,-0.3347 1.43164,-0.582 0.360507,-0.2473 0.632348,-0.4063 0.867188,-0.4063 0.23484,0 0.504728,0.159 0.865234,0.4063 0.360507,0.2473 0.811251,0.582 1.431641,0.582 0.62039,0 1.071133,-0.3347 1.431641,-0.582 0.360507,-0.2473 0.630393,-0.4063 0.865234,-0.4063 0.23484,0 0.504728,0.159 0.865234,0.4063 0.360507,0.2473 0.811251,0.582 1.431641,0.582 0.620389,0 1.071134,-0.3347 1.431641,-0.582 0.360506,-0.2473 0.630394,-0.4063 0.865234,-0.4063 0.234743,0 0.506647,0.1589 0.867188,0.4063 0.36054,0.2474 0.811086,0.5824 1.43164,0.582 0.622347,-3e-4 1.210264,-0.291 1.707031,-0.5547 0.496767,-0.2636 0.88086,-0.5273 0.88086,-0.5273 a 0.50005018,0.50005018 0 0 0 -0.300781,-0.916 z"/><path style="color:#000000;font-style:normal;font-variant:normal;font-weight:normal;font-stretch:normal;font-size:medium;line-height:normal;font-family:sans-serif;text-indent:0;text-align:start;text-decoration:none;text-decoration-line:none;text-decoration-style:solid;text-decoration-color:#000000;letter-spacing:normal;word-spacing:normal;text-transform:none;direction:ltr;block-progression:tb;writing-mode:lr-tb;baseline-shift:baseline;text-anchor:start;white-space:normal;clip-rule:nonzero;display:inline;overflow:visible;visibility:visible;opacity:1;isolation:auto;mix-blend-mode:normal;color-interpolation:sRGB;color-interpolation-filters:linearRGB;solid-color:#000000;solid-opacity:1;fill:#000000;fill-opacity:1;fill-rule:evenodd;stroke:none;stroke-width:1.00000191;stroke-linecap:butt;stroke-linejoin:miter;stroke-miterlimit:4;stroke-dasharray:none;stroke-dashoffset:0;stroke-opacity:1;color-rendering:auto;image-rendering:auto;shape-rendering:auto;text-rendering:auto;enable-background:accumulate" d="m 18,1032.8594 0,1 1.5,0 0,-1 -1.5,0 z"/><path style="color:#000000;font-style:normal;font-variant:normal;font-weight:normal;font-stretch:normal;font-size:medium;line-height:normal;font-family:sans-serif;text-indent:0;text-align:start;text-decoration:none;text-decoration-line:none;text-decoration-style:solid;text-decoration-color:#000000;letter-spacing:normal;word-spacing:normal;text-transform:none;direction:ltr;block-progression:tb;writing-mode:lr-tb;baseline-shift:baseline;text-anchor:start;white-space:normal;clip-rule:nonzero;display:inline;overflow:visible;visibility:visible;opacity:1;isolation:auto;mix-blend-mode:normal;color-interpolation:sRGB;color-interpolation-filters:linearRGB;solid-color:#000000;solid-opacity:1;fill:#000000;fill-opacity:1;fill-rule:evenodd;stroke:none;stroke-width:1.00000191;stroke-linecap:butt;stroke-linejoin:miter;stroke-miterlimit:4;stroke-dasharray:none;stroke-dashoffset:0;stroke-opacity:1;color-rendering:auto;image-rendering:auto;shape-rendering:auto;text-rendering:auto;enable-background:accumulate" d="m 21.5,1032.8594 0,1 1.5,0 0,-1 -1.5,0 z"/><path style="color:#000000;font-style:normal;font-variant:normal;font-weight:normal;font-stretch:normal;font-size:medium;line-height:normal;font-family:sans-serif;text-indent:0;text-align:start;text-decoration:none;text-decoration-line:none;text-decoration-style:solid;text-decoration-color:#000000;letter-spacing:normal;word-spacing:normal;text-transform:none;direction:ltr;block-progression:tb;writing-mode:lr-tb;baseline-shift:baseline;text-anchor:start;white-space:normal;clip-rule:nonzero;display:inline;overflow:visible;visibility:visible;opacity:1;isolation:auto;mix-blend-mode:normal;color-interpolation:sRGB;color-interpolation-filters:linearRGB;solid-color:#000000;solid-opacity:1;fill:#000000;fill-opacity:1;fill-rule:nonzero;stroke:none;stroke-width:1.00000203;stroke-linecap:butt;stroke-linejoin:round;stroke-miterlimit:4;stroke-dasharray:none;stroke-dashoffset:0;stroke-opacity:1;color-rendering:auto;image-rendering:auto;shape-rendering:auto;text-rendering:auto;enable-background:accumulate" d="m 15,1026.8613 a 0.50005101,0.50005101 0 0 0 -0.5,0.5 l 0,4 1,0 0,-3.5 1.5,0 0,3.5 1,0 0,-4 a 0.50005101,0.50005101 0 0 0 -0.5,-0.5 l -2.5,0 z"/><path style="color:#000000;font-style:normal;font-variant:normal;font-weight:normal;font-stretch:normal;font-size:medium;line-height:normal;font-family:sans-serif;text-indent:0;text-align:start;text-decoration:none;text-decoration-line:none;text-decoration-style:solid;text-decoration-color:#000000;letter-spacing:normal;word-spacing:normal;text-transform:none;direction:ltr;block-progression:tb;writing-mode:lr-tb;baseline-shift:baseline;text-anchor:start;white-space:normal;clip-rule:nonzero;display:inline;overflow:visible;visibility:visible;opacity:1;isolation:auto;mix-blend-mode:normal;color-interpolation:sRGB;color-interpolation-filters:linearRGB;solid-color:#000000;solid-opacity:1;fill:#000000;fill-opacity:1;fill-rule:evenodd;stroke:none;stroke-width:1px;stroke-linecap:butt;stroke-linejoin:miter;stroke-miterlimit:4;stroke-dasharray:none;stroke-dashoffset:0;stroke-opacity:1;color-rendering:auto;image-rendering:auto;shape-rendering:auto;text-rendering:auto;enable-background:accumulate" d="m 23,1041.3613 0,2.5 1,0 0,-2.5 -1,0 z"/><path style="color:#000000;font-style:normal;font-variant:normal;font-weight:normal;font-stretch:normal;font-size:medium;line-height:normal;font-family:sans-serif;text-indent:0;text-align:start;text-decoration:none;text-decoration-line:none;text-decoration-style:solid;text-decoration-color:#000000;letter-spacing:normal;word-spacing:normal;text-transform:none;direction:ltr;block-progression:tb;writing-mode:lr-tb;baseline-shift:baseline;text-anchor:start;white-space:normal;clip-rule:nonzero;display:inline;overflow:visible;visibility:visible;opacity:1;isolation:auto;mix-blend-mode:normal;color-interpolation:sRGB;color-interpolation-filters:linearRGB;solid-color:#000000;solid-opacity:1;fill:#000000;fill-opacity:1;fill-rule:nonzero;stroke:none;stroke-width:1;stroke-linecap:round;stroke-linejoin:round;stroke-miterlimit:4;stroke-dasharray:none;stroke-dashoffset:0;stroke-opacity:1;color-rendering:auto;image-rendering:auto;shape-rendering:auto;text-rendering:auto;enable-background:accumulate" d="m 24.712891,1042.6133 a 0.50005,0.50005 0 0 0 -0.394532,0.248 c -0.197988,0.3295 -0.50435,0.4997 -0.818359,0.5 -0.314009,3e-4 -0.619909,-0.169 -0.818359,-0.498 a 0.50005,0.50005 0 1 0 -0.855469,0.5156 c 0.361454,0.5992 0.990444,0.9831 1.675781,0.9824 0.685337,-6e-4 1.313335,-0.3864 1.673828,-0.9863 a 0.50005,0.50005 0 0 0 -0.46289,-0.7617 z"/><path style="color:#000000;font-style:normal;font-variant:normal;font-weight:normal;font-stretch:normal;font-size:medium;line-height:normal;font-family:sans-serif;text-indent:0;text-align:start;text-decoration:none;text-decoration-line:none;text-decoration-style:solid;text-decoration-color:#000000;letter-spacing:normal;word-spacing:normal;text-transform:none;direction:ltr;block-progression:tb;writing-mode:lr-tb;baseline-shift:baseline;text-anchor:start;white-space:normal;clip-rule:nonzero;display:inline;overflow:visible;visibility:visible;opacity:1;isolation:auto;mix-blend-mode:normal;color-interpolation:sRGB;color-interpolation-filters:linearRGB;solid-color:#000000;solid-opacity:1;fill:#000000;fill-opacity:1;fill-rule:evenodd;stroke:none;stroke-width:1px;stroke-linecap:round;stroke-linejoin:round;stroke-miterlimit:4;stroke-dasharray:none;stroke-dashoffset:0;stroke-opacity:1;color-rendering:auto;image-rendering:auto;shape-rendering:auto;text-rendering:auto;enable-background:accumulate" d="m 22.496094,1021.3613 c -0.545748,0 -0.999917,0.4539 -1,1 1.4e-5,0.2806 -0.217933,0.4981 -0.5,0.4981 l -3.496094,0 c -0.821729,0 -1.499958,0.6763 -1.5,1.498 l 0,0.9981 a 0.50005,0.50005 0 1 0 1,0 l 0,-0.9981 c 1.4e-5,-0.2805 0.217954,-0.498 0.5,-0.498 l 3.496094,0 c 0.683564,0 1.174543,-0.5123 1.351562,-1.1426 a 0.50005,0.50005 0 0 0 0.148438,-0.3555 l 4.496094,0 a 0.50005,0.50005 0 1 0 0,-1 l -4.496094,0 z"/><path style="color:#000000;font-style:normal;font-variant:normal;font-weight:normal;font-stretch:normal;font-size:medium;line-height:normal;font-family:sans-serif;text-indent:0;text-align:start;text-decoration:none;text-decoration-line:none;text-decoration-style:solid;text-decoration-color:#000000;letter-spacing:normal;word-spacing:normal;text-transform:none;direction:ltr;block-progression:tb;writing-mode:lr-tb;baseline-shift:baseline;text-anchor:start;white-space:normal;clip-rule:nonzero;display:inline;overflow:visible;visibility:visible;opacity:1;isolation:auto;mix-blend-mode:normal;color-interpolation:sRGB;color-interpolation-filters:linearRGB;solid-color:#000000;solid-opacity:1;fill:#000000;fill-opacity:1;fill-rule:evenodd;stroke:none;stroke-width:1px;stroke-linecap:round;stroke-linejoin:round;stroke-miterlimit:4;stroke-dasharray:none;stroke-dashoffset:0;stroke-opacity:1;color-rendering:auto;image-rendering:auto;shape-rendering:auto;text-rendering:auto;enable-background:accumulate" d="m 26.498047,1022.8613 c -0.546352,0 -1,0.4542 -1,1 l 0,0.5 -3.490235,0 a 0.50005,0.50005 0 1 0 0,1 l 3.492188,0 c 0.546351,0 0.998047,-0.4542 0.998047,-1 l 0,-0.5 2.494141,0 a 0.50005,0.50005 0 1 0 0,-1 l -2.494141,0 z"/></g><text x="0" y="47.000001" fill="#000000" font-size="5px" font-weight="bold" font-family="'Helvetica Neue', Helvetica, Arial-Unicode, Arial, Sans-serif">Created by anbileru adaleru</text><text x="0" y="52.000001" fill="#000000" font-size="5px" font-weight="bold" font-family="'Helvetica Neue', Helvetica, Arial-Unicode, Arial, Sans-serif">from the Noun Project</text></svg>